{"title":"The AFL Footy Show - 29-9-2016","uid":15973744,"size":3755266613,"categoryP":"video","categoryS":"tv_shows","magnet":"?xt=urn:btih:d39ed1599f3b53eb2f2d14abf618801d835fe321&amp;dn=The+AFL+Footy+Show+-+29-9-2016&amp;tr=udp%3A%2F%2Ftracker.leechers-paradise.org%3A6969&amp;tr=udp%3A%2F%2Fzer0day.ch%3A1337&amp;tr=udp%3A%2F%2Fopen.demonii.com%3A1337&amp;tr=udp%3A%2F%2Ftracker.coppersurfer.tk%3A6969&amp;tr=udp%3A%2F%2Fexodus.desync.com%3A6969","seeders":8,"leechers":2,"uploader":"Bullrout","files":1,"time":1475804895,"description":"The AFL Footy Show - 29-9-2016\r\n\r\nThe Logie award-winning AFL Footy Show celebrates its 23rd season. The biggest names in football bring viewers all the latest in the world of AFL including, breaking news, team line-ups and entertainment. Plus the AFL’s biggest stars and regular favourite segments, Street Talk and Sam's Mailbag.\r\n\r\n\r\nComplete name                            : The AFL Footy Show - 29-9-2016.mkv\r\nFormat                                   : Matroska\r\nFormat version                           : Version 4 / Version 2\r\nFile size                                : 3.50 GiB\r\nDuration                                 : 2 h 31 min\r\nOverall bit rate mode                    : Variable\r\nOverall bit rate                         : 3 295 kb/s\r\nEncoded date                             : UTC 2016-10-06 18:25:31\r\nWriting application                      : mkvmerge v9.4.2 ('So High') 64bit\r\nWriting library                          : libebml v1.3.4 + libmatroska v1.4.5\r\n\r\nVideo\r\nID                                       : 2\r\nFormat                                   : AVC\r\nFormat/Info                              : Advanced Video Codec\r\nFormat profile                           :   \r\nFormat settings, CABAC                   : Yes\r\nFormat settings, ReFrames                : 3 frames\r\nCodec ID                                 : V_MPEG4/ISO/AVC\r\nDuration                                 : 2 h 31 min\r\nBit rate mode                            : Variable\r\nBit rate                                 : 2 909 kb/s\r\nMaximum bit rate                         : 3 000 kb/s\r\nWidth                                    : 1 280 pixels\r\nHeight                                   : 720 pixels\r\nDisplay aspect ratio                     : 16:9\r\nFrame rate mode                          : Constant\r\nFrame rate                               : 25.000 FPS\r\nStandard                                 : PAL\r\nColor space                              : YUV\r\nChroma subsampling                       : 4:2:0\r\nBit depth                                : 8 bits\r\nScan type                                : Progressive\r\nBits/(Pixel*Frame)                       : 0.126\r\nStream size                              : 3.09 GiB (88%)\r\nWriting library                          : x264 core 112\r\nDefault                                  : Yes\r\nForced                                   : No\r\nColor range                              : Limited\r\nColor primaries                          : BT.709\r\nTransfer characteristics                 : BT.709\r\nMatrix coefficients                      : BT.709\r\n\r\nAudio\r\nID                                       : 1\r\nFormat                                   : AC-3\r\nFormat/Info                              : Audio Coding 3\r\nMode extension                           : CM (complete main)\r\nFormat settings, Endianness              : Big\r\nCodec ID                                 : A_AC3\r\nDuration                                 : 2 h 31 min\r\nBit rate mode                            : Constant\r\nBit rate                                 : 384 kb/s\r\nChannel(s)                               : 6 channels\r\nChannel positions                        : Front: L C R, Side: L R, LFE\r\nSampling rate                            : 48.0 kHz\r\nFrame rate                               : 31.250 FPS (1536 spf)\r\nCompression mode                         : Lossy\r\nStream size                              : 417 MiB (12%)\r\nDefault                                  : Yes\r\nForced                                   : No","torrent":{"xt":"urn:btih:d39ed1599f3b53eb2f2d14abf618801d835fe321","amp;dn":"The+AFL+Footy+Show+-+29-9-2016","amp;tr":["udp%3A%2F%2Ftracker.leechers-paradise.org%3A6969","udp%3A%2F%2Fzer0day.ch%3A1337","udp%3A%2F%2Fopen.demonii.com%3A1337","udp%3A%2F%2Ftracker.coppersurfer.tk%3A6969","udp%3A%2F%2Fexodus.desync.com%3A6969"],"infoHash":"d39ed1599f3b53eb2f2d14abf618801d835fe321","infoHashBuffer":{"type":"Buffer","data":[211,158,209,89,159,59,83,235,47,45,20,171,246,24,128,29,131,95,227,33]},"announce":[],"urlList":[]}}